<svg width="32" height="32" viewBox="0 0 32 32" fill="none" xmlns="http://www.w3.org/2000/svg">
<path d="M10.059 15.9998C10.059 17.7409 8.64791 19.152 6.90684 19.152C5.16577 19.152 3.75427 17.7409 3.75427 15.9998C3.75427 14.2587 5.16577 12.8477 6.90684 12.8477C8.64791 12.8477 10.059 14.2587 10.059 15.9998Z" fill="#5C5F66"/>
<path d="M19.1525 15.9998C19.1525 17.7409 17.7414 19.152 16.0003 19.152C14.2593 19.152 12.8478 17.7409 12.8478 15.9998C12.8478 14.2587 14.2593 12.8477 16.0003 12.8477C17.7414 12.8477 19.1525 14.2587 19.1525 15.9998Z" fill="#5C5F66"/>
<path d="M28.2458 15.9998C28.2458 17.7409 26.8347 19.152 25.0936 19.152C23.3525 19.152 21.941 17.7409 21.941 15.9998C21.941 14.2587 23.3525 12.8477 25.0936 12.8477C26.8347 12.8477 28.2458 14.2587 28.2458 15.9998Z" fill="#5C5F66"/>
</svg>
