<svg width="25" height="30" viewBox="0 0 25 30" fill="none" xmlns="http://www.w3.org/2000/svg">
<path fill-rule="evenodd" clip-rule="evenodd" d="M7.31526 12.4785C8.40053 11.565 8.99657 10.197 8.92651 8.78003L8.591 2.00481C8.57124 1.60653 8.2375 1.29667 7.83899 1.30655C7.44022 1.31643 7.12233 1.64235 7.12233 2.04109V7.69237C7.12233 8.00635 6.95465 8.29668 6.6827 8.45379C6.41075 8.61067 6.07563 8.61067 5.80345 8.45379C5.5315 8.29667 5.36405 8.00636 5.36405 7.69237V2.20414C5.36405 1.88324 5.19293 1.58694 4.91501 1.42662C4.63729 1.26629 4.29505 1.26629 4.01735 1.42662C3.73966 1.58697 3.56854 1.88327 3.56854 2.20414V7.69237C3.56854 8.00635 3.40109 8.29668 3.12891 8.45379C2.85695 8.61067 2.52185 8.61067 2.2499 8.45379C1.97794 8.29667 1.81026 8.00636 1.81026 7.69237V2.04109C1.81026 1.64235 1.49211 1.31642 1.0936 1.30655C0.694861 1.29667 0.361121 1.60653 0.341598 2.00481H0.341368L0.00556198 8.78983C-0.0642934 10.2012 0.526949 11.5647 1.60489 12.4784H1.60466L1.62762 12.4977C2.7963 13.4851 3.38683 14.9959 3.19825 16.5141C2.62951 21.0406 2.23169 26.9217 2.23169 27.6686C2.23239 28.4663 2.65846 29.2032 3.34961 29.6017C4.04051 30.0004 4.89177 30.0004 5.58268 29.6017C6.27385 29.2032 6.69992 28.4663 6.70084 27.6686L6.70061 27.6684C6.70061 26.9204 6.30233 21.0331 5.73293 16.5056C5.54318 14.9819 6.139 13.4657 7.31526 12.4785ZM16.8325 0.790161L16.8323 0.799286C17.0774 0.821799 17.3052 0.934807 17.4713 1.11626C17.6373 1.29796 17.7297 1.535 17.7301 1.781V19.222C15.9029 20.3104 14.6787 22.3058 14.6787 24.587C14.6787 26.5671 15.6009 28.3317 17.0392 29.4749C16.7946 29.6773 16.5016 29.8167 16.1857 29.8776C15.6257 29.9724 15.0531 29.8059 14.6313 29.4251C14.2097 29.0445 13.9853 28.4918 14.0225 27.9249L14.4968 20.2197C14.5156 19.9406 14.46 19.6615 14.3355 19.4112C14.211 19.1608 14.022 18.9479 13.7882 18.7945C12.8037 18.1552 12.1505 17.1152 12.0021 15.9507C11.8043 14.2751 11.8165 12.5813 12.0384 10.9088C12.8669 4.55503 15.0076 1.51691 16.2679 0.926136C16.3577 0.877673 16.4544 0.843908 16.5548 0.825763L16.5617 0.824385C16.6196 0.807388 16.6789 0.795903 16.739 0.790161C16.749 0.790161 16.7586 0.791521 16.7682 0.792883C16.7758 0.79396 16.7834 0.795038 16.7912 0.795444C16.7975 0.795226 16.8042 0.79402 16.8109 0.792816C16.8183 0.791488 16.8256 0.790161 16.8325 0.790161Z" fill="#5C5F66"/>
<path d="M21.7762 23.6633H24.84V25.3971H21.7762V28.4451H20.0424V25.3971H16.9786V23.6633H20.0424V20.5758H21.7762V23.6633Z" fill="#5C5F66"/>
</svg>
