<svg width="32" height="32" viewBox="0 0 32 32" fill="none" xmlns="http://www.w3.org/2000/svg">
<path d="M20.726 2.63086V6.67045C20.726 7.30785 21.2429 7.8247 21.8803 7.8247H25.9199" stroke="white" stroke-width="2.13333" stroke-miterlimit="10"/>
<path d="M20.2482 2.63042H7.45274C6.81534 2.63042 6.29848 3.14725 6.29848 3.78468V27.9917C6.29848 28.6291 6.81531 29.146 7.45274 29.146H24.7658C25.4032 29.146 25.92 28.6292 25.92 27.9917V8.30222C25.92 7.99618 25.7984 7.7025 25.5819 7.48603L21.0642 2.96831C20.8476 2.75187 20.5541 2.63025 20.248 2.63025L20.2482 2.63042Z" stroke="white" stroke-width="2.13333" stroke-miterlimit="10"/>
<path d="M16.1092 13.0026V21.9476" stroke="white" stroke-width="2.13333" stroke-miterlimit="10"/>
<path d="M19.2718 18.9238L16.1092 22.0863L12.9467 18.9238" stroke="white" stroke-width="2.13333" stroke-miterlimit="10"/>
</svg>
