<svg width="32" height="32" viewBox="0 0 32 32" fill="none" xmlns="http://www.w3.org/2000/svg">
<path d="M18.2278 9.27708C18.2278 10.5109 17.2278 11.5108 15.994 11.5108C14.7602 11.5108 13.76 10.5109 13.76 9.27708C13.76 8.04328 14.7602 7.04333 15.994 7.04333C17.2278 7.04333 18.2278 8.04328 18.2278 9.27708Z" fill="#5C5F66"/>
<path fill-rule="evenodd" clip-rule="evenodd" d="M6.0161 3.52002H25.9839C26.6461 3.52002 27.281 3.78291 27.749 4.25097C28.2171 4.71904 28.48 5.35394 28.48 6.01613V16.3711C27.965 16.0224 27.4072 15.7321 26.8161 15.5097V6.01607C26.8161 5.79525 26.7285 5.58371 26.5724 5.4276C26.4163 5.27149 26.2047 5.18385 25.9839 5.18385H6.0161L6.01619 5.18393C5.55656 5.18393 5.18398 5.55651 5.18398 6.01615V23.8334L9.90568 19.694C10.1846 19.4404 10.5479 19.2997 10.9248 19.2997C11.3018 19.2997 11.6653 19.4404 11.9439 19.694L13.6371 21.1791C13.916 21.433 14.2793 21.5735 14.6562 21.5735C15.0335 21.5735 15.3968 21.433 15.6756 21.1791L16.3777 20.5637C16.1324 21.3319 16 22.1505 16 23C16 25.1205 16.825 27.0484 18.1716 28.48H6.0161C5.35393 28.48 4.719 28.2171 4.25095 27.7491C3.7829 27.281 3.52 26.6461 3.52 25.9839V6.01613C3.52 5.35395 3.78289 4.71902 4.25095 4.25097C4.71901 3.78292 5.35392 3.52002 6.0161 3.52002Z" fill="#5C5F66"/>
<path d="M24.7976 22.0875H27.8613V23.8213H24.7976V26.8693H23.0638V23.8213H20V22.0875H23.0638V19H24.7976V22.0875Z" fill="#5C5F66"/>
</svg>
