<svg xmlns="http://www.w3.org/2000/svg" version="1.0" width="512.000000pt" height="512.000000pt" viewBox="0 0 512.000000 512.000000" preserveAspectRatio="xMidYMid meet">

<g transform="translate(0.000000,512.000000) scale(0.100000,-0.100000)" fill="#ffffff" stroke="none">
<path d="M595 4820 c-220 -30 -422 -174 -519 -371 -82 -168 -77 -54 -74 -1804 l3 -1550 27 -80 c61 -179 187 -329 339 -404 168 -82 30 -75 1633 -79 l1428 -3 62 -43 c519 -369 1241 -182 1521 393 159 326 131 722 -72 1029 -144 217 -422 392 -695 437 l-37 6 -3 962 -3 962 -26 72 c-85 232 -243 385 -469 455 l-75 23 -1490 1 c-820 1 -1517 -2 -1550 -6z m3042 -275 c145 -43 262 -162 299 -304 12 -46 14 -192 14 -840 l0 -785 -372 371 c-362 360 -374 372 -419 378 -33 5 -55 3 -75 -8 -16 -9 -276 -263 -579 -566 l-550 -551 -385 384 c-357 356 -388 385 -427 391 -28 4 -50 2 -70 -8 -15 -9 -205 -193 -420 -410 l-393 -394 0 991 c0 1074 -1 1048 54 1147 49 88 156 172 261 205 32 10 355 13 1526 13 1294 1 1492 -1 1536 -14z m131 -2236 c-103 -32 -167 -64 -288 -144 -315 -208 -492 -626 -425 -1006 17 -101 75 -275 110 -335 l26 -44 -1263 3 c-892 2 -1279 7 -1316 15 -168 36 -294 155 -337 317 -12 47 -15 124 -15 385 l0 325 426 433 c234 237 431 432 437 432 7 0 181 -169 387 -375 400 -400 406 -405 480 -385 28 8 149 124 590 565 l555 555 358 -358 357 -357 -82 -26z m425 -224 c189 -21 395 -146 512 -310 224 -315 184 -733 -94 -1005 -143 -139 -322 -210 -531 -210 -216 0 -405 82 -561 244 -137 141 -196 281 -206 486 -11 234 58 409 227 581 127 129 272 199 450 219 74 8 87 7 203 -5z" fill="#ffffff"/>
<path d="M1861 3700 c-106 -22 -203 -99 -249 -198 -23 -49 -27 -70 -27 -147 0 -78 4 -97 28 -147 60 -122 164 -190 303 -196 125 -6 217 37 294 136 64 83 86 205 55 308 -50 170 -231 279 -404 244z" fill="#ffffff"/>
<path d="M4030 1879 c-30 -12 -346 -323 -366 -361 -46 -87 14 -188 111 -188 47 0 69 12 128 68 l47 46 0 -288 c0 -272 1 -291 20 -321 39 -64 125 -81 184 -38 53 38 56 58 56 364 l0 283 54 -53 c46 -46 61 -54 101 -59 107 -12 174 81 131 181 -17 40 -331 352 -369 366 -34 13 -63 13 -97 0z" fill="#ffffff"/>
</g>
</svg>