<svg width="25" height="28" viewBox="0 0 25 28" fill="none" xmlns="http://www.w3.org/2000/svg">
<path fill-rule="evenodd" clip-rule="evenodd" d="M2.29061 7.06504V2.95868H22.4838V7.06504H2.29061ZM24.5474 7.83886C24.5474 7.93958 24.5358 8.03759 24.514 8.13166C24.3814 8.70289 23.8692 9.12858 23.2577 9.12858H1.51679C0.905213 9.12858 0.39306 8.7029 0.260455 8.13166C0.238618 8.03759 0.227074 7.93958 0.227074 7.83886V2.18485C0.227074 1.47257 0.804498 0.895142 1.51679 0.895142H23.2577C23.9699 0.895142 24.5474 1.47257 24.5474 2.18485V7.83886ZM0.260455 10.9488C0.39306 10.3776 0.905212 9.95192 1.51679 9.95192H23.2577C23.8692 9.95192 24.3814 10.3776 24.514 10.9488C24.5358 11.0429 24.5474 11.1409 24.5474 11.2416V14.1399C23.9094 13.7709 23.2164 13.4862 22.4838 13.3014V12.0155H2.29061V16.1218H14.1441C13.651 16.7422 13.247 17.4365 12.9512 18.1854H1.51679C0.905213 18.1854 0.393059 17.7597 0.260455 17.1884C0.238618 17.0944 0.227074 16.9964 0.227074 16.8956V11.2416C0.227074 11.1409 0.238618 11.0429 0.260455 10.9488ZM12.6763 19.0087H1.51679C0.905212 19.0087 0.393059 19.4344 0.260455 20.0056C0.238618 20.0997 0.227074 20.1977 0.227074 20.2984V25.9524C0.227074 26.6647 0.804499 27.2421 1.51679 27.2421H15.1316C14.4644 26.6533 13.8949 25.9563 13.4505 25.1786H2.29061V21.0722H12.3877C12.3954 20.3585 12.4954 19.6668 12.6763 19.0087Z" fill="#5C5F66"/>
<path d="M21.7762 20.6633H24.8399V22.3971H21.7762V25.4451H20.0424V22.3971H16.9786V20.6633H20.0424V17.5758H21.7762V20.6633Z" fill="#5C5F66"/>
</svg>
