<svg width="26" height="30" viewBox="0 0 26 30" fill="none" xmlns="http://www.w3.org/2000/svg">
<path d="M11.5791 28.3389C10.6292 28.3389 9.73617 27.9692 9.06479 27.298L1.35751 19.5908C0.602323 18.8342 0.202881 17.8714 0.202881 16.8035C0.202881 15.7512 0.613793 14.7599 1.35751 14.0175L10.0277 5.3473L7.91174 3.20132C7.35989 2.64233 7.36561 1.7422 7.92603 1.19058C8.48502 0.64016 9.38374 0.644445 9.93677 1.20486L22.4838 13.9213C23.8489 15.3036 23.842 17.5476 22.4681 18.9242L14.0922 27.2988C13.4225 27.9699 12.5293 28.3396 11.5794 28.3396L11.5791 28.3389ZM12.0257 7.3703L3.36826 16.0277C3.10233 16.2937 3.04686 16.5951 3.04686 16.8027C3.04686 17.1169 3.14638 17.3559 3.36826 17.5776L11.0755 25.2849C11.2562 25.467 11.4681 25.4925 11.5791 25.4925C11.6886 25.4925 11.9004 25.4656 12.0811 25.2849L20.4558 16.9114C20.7274 16.6384 20.7303 16.1917 20.4586 15.9161L12.0255 7.36956L12.0257 7.3703ZM20.1114 26.1893C20.1114 23.995 22.5517 22.2842 22.9557 20.1214C23.3637 22.2857 25.7999 24.0079 25.7999 26.1893C25.7999 27.8646 24.5272 29.2226 22.9557 29.2226C21.3842 29.2226 20.1114 27.8644 20.1114 26.1893ZM23.5244 16.4239L12.0525 27.8958L2.36264 18.206C1.87055 17.7124 1.62464 16.424 1.62464 16.424L23.5244 16.4239Z" fill="#5C5F66"/>
</svg>
