<svg width="27" height="27" viewBox="0 0 27 27" fill="none" xmlns="http://www.w3.org/2000/svg">
<path d="M25.4664 0.933228H8.39991C7.81081 0.933228 7.33325 1.4108 7.33325 1.99989V19.0666C7.33325 19.6557 7.81082 20.1332 8.39991 20.1332H25.4664C26.0555 20.1332 26.5331 19.6557 26.5331 19.0666V1.99989C26.5331 1.41079 26.0555 0.933228 25.4664 0.933228ZM17.9998 17.9999H9.46656V9.46656H17.9998V17.9999ZM24.3998 17.9999H20.1331V9.46656H24.3998V17.9999ZM24.3998 7.33323H9.46656V3.06656H24.3998V7.33323Z" fill="#5C5F66"/>
<path d="M5.19973 9.46659V7.33325H1.99976C1.41066 7.33325 0.933105 7.81083 0.933105 8.39992V25.4666C0.933105 26.0557 1.41068 26.5333 1.99976 26.5333H19.0663C19.6554 26.5333 20.1329 26.0557 20.1329 25.4666V22.2666H17.9996V24.3999H3.06642V9.46659H5.19973Z" fill="#5C5F66"/>
</svg>
